# xmcd
#
# Track frame offsets: 
#        150
#        11004
#        23704
#        34764
#        50518
#        69589
#        92089
#        102691
#        119735
#        147131
#        165644
#        192458
#        210354
#        229278
#        238342
#        251097
#        263258
#        281875
#        296626
#        316224
#
# Disc length: 4476 seconds
#
# Revision: 0
# Processed by: cddbd v1.5.2PL0 Copyright (c) Steve Scherf et al.
# Submitted via: ExactAudioCopy v0.99pb5
#
DISCID=2e117a14
DTITLE=Versch - Barbara's Weihnachtsmix
DYEAR=2006
DGENRE=A Cappella
TTITLE0=We wish you a merry Christmas - Take 6
TTITLE1=The Christmas song - Mel Torme
TTITLE2=Jingle Bells - Ella Fitzgerald
TTITLE3=Santa Baby - Eartha Kitt
TTITLE4=I'll be home for Christmas - Barbara Streisand
TTITLE5=The firs Noel - Will Downing
TTITLE6=Have yourself a merry little Christmas - The Singers Unlimited
TTITLE7=Steigh ride - Harry Connick Jr.
TTITLE8=Christmas time is here - Vince Guaraldi Trio
TTITLE9=Rudolph the red nosed reindeer - Ray Charles
TTITLE10=Silent Night - The Manhattan Transfer
TTITLE11=Santa Claus is coming home to town - Chicago
TTITLE12=Sweet little Jesus Boy - Nancy Wilson and New York Voices
TTITLE13=Let it snow - Dean Martin
TTITLE14=The Christmas Walz - Doris Day
TTITLE15=White Christmas - The Drifters
TTITLE16=This Christmas - Donny Hathaway
TTITLE17=Winter wonderland - Diana Krall
TTITLE18=O come all ye faithful - Luther Vandross
TTITLE19=God rest ye merry Gentlemen
EXTD=
EXTT0=
EXTT1=
EXTT2=
EXTT3=
EXTT4=
EXTT5=
EXTT6=
EXTT7=
EXTT8=
EXTT9=
EXTT10=
EXTT11=
EXTT12=
EXTT13=
EXTT14=
EXTT15=
EXTT16=
EXTT17=
EXTT18=
EXTT19=
PLAYORDER=
